
<svg xmlns="http://www.w3.org/2000/svg" style="display:none">

  
  <symbol id="i-home" viewBox="0 0 24 24" fill="none" stroke="currentColor" stroke-width="1.75" stroke-linecap="round" stroke-linejoin="round">
    <path d="M3.5 11 12 4l8.5 7"></path>
    <path d="M5.5 9.8V19a1 1 0 0 0 1 1h3v-5.5a1 1 0 0 1 1-1h3a1 1 0 0 1 1 1V20h3a1 1 0 0 0 1-1V9.8"></path>
  </symbol>

  <symbol id="i-calendar" viewBox="0 0 24 24" fill="none" stroke="currentColor" stroke-width="1.75" stroke-linecap="round" stroke-linejoin="round">
    <rect x="3.5" y="5.5" width="17" height="15" rx="2.5"></rect>
    <path d="M3.5 10h17M8 3.5v4M16 3.5v4"></path>
    <circle cx="12" cy="15" r="0.9" fill="currentColor" stroke="none"></circle>
  </symbol>

  <symbol id="i-compass" viewBox="0 0 24 24" fill="none" stroke="currentColor" stroke-width="1.75" stroke-linecap="round" stroke-linejoin="round">
    <circle cx="12" cy="12" r="8.5"></circle>
    <path d="m14.8 9.2-4.1 1.5-1.5 4.1 4.1-1.5z"></path>
  </symbol>

  <symbol id="i-map" viewBox="0 0 24 24" fill="none" stroke="currentColor" stroke-width="1.75" stroke-linecap="round" stroke-linejoin="round">
    <path d="M3.5 6.5 9 4.5l6 2 5.5-2V17.5L15 19.5l-6-2-5.5 2z"></path>
    <path d="M9 4.5v13M15 6.5v13"></path>
  </symbol>

  <symbol id="i-lightbulb" viewBox="0 0 24 24" fill="none" stroke="currentColor" stroke-width="1.75" stroke-linecap="round" stroke-linejoin="round">
    <path d="M9 18h6M10 21h4"></path>
    <path d="M12 3a6 6 0 0 0-3.6 10.8c.6.5.9 1.1.9 1.8v.9h5.4v-.9c0-.7.3-1.3.9-1.8A6 6 0 0 0 12 3Z"></path>
  </symbol>

  
  <symbol id="i-museum" viewBox="0 0 24 24" fill="none" stroke="currentColor" stroke-width="1.75" stroke-linecap="round" stroke-linejoin="round">
    <path d="M3 20h18M4.5 20V10.5M19.5 20V10.5M3.5 10.5 12 4l8.5 6.5"></path>
    <path d="M8 20v-6M12 20v-6M16 20v-6"></path>
  </symbol>

  <symbol id="i-temple" viewBox="0 0 24 24" fill="none" stroke="currentColor" stroke-width="1.75" stroke-linecap="round" stroke-linejoin="round">
    <path d="M12 3.5 4 8.5h16z"></path>
    <path d="M5.5 8.5v2h13v-2"></path>
    <path d="M6.5 10.5v8.5M17.5 10.5v8.5M10 10.5v8.5M14 10.5v8.5"></path>
    <path d="M3.5 20h17"></path>
  </symbol>

  <symbol id="i-noodles" viewBox="0 0 24 24" fill="none" stroke="currentColor" stroke-width="1.75" stroke-linecap="round" stroke-linejoin="round">
    <path d="M3.5 11.5h17a0 0 0 0 1 0 0 8.5 6.5 0 0 1-17 0"></path>
    <path d="M2 11.5h19"></path>
    <path d="M8 8.5c0-2 1.5-3.5 3-3.5M12 8.5c0-2 1.5-3.5 3-3.5M5 8.5c0-1.5 1-2.5 2-2.5"></path>
    <path d="M15 19.5l3 2.5M9 19.5l-3 2.5"></path>
  </symbol>

  <symbol id="i-shop" viewBox="0 0 24 24" fill="none" stroke="currentColor" stroke-width="1.75" stroke-linecap="round" stroke-linejoin="round">
    <path d="M5 8h14l-1.2 11.2a1 1 0 0 1-1 .8H7.2a1 1 0 0 1-1-.8z"></path>
    <path d="M8.5 8V6a3.5 3.5 0 0 1 7 0v2"></path>
  </symbol>

  <symbol id="i-park" viewBox="0 0 24 24" fill="none" stroke="currentColor" stroke-width="1.75" stroke-linecap="round" stroke-linejoin="round">
    <path d="M12 3.5 6 11h3l-3 4h4l-2.5 3h9L14 15h4l-3-4h3z"></path>
    <path d="M12 18v2.5"></path>
  </symbol>

  <symbol id="i-castle" viewBox="0 0 24 24" fill="none" stroke="currentColor" stroke-width="1.75" stroke-linecap="round" stroke-linejoin="round">
    <path d="M3.5 20h17M4.5 20V9l2 1V7l2.5 1V10l3-1.5V10l3-1.5V10l2.5-1v3l2-1v11"></path>
    <path d="M10.5 20v-4a1.5 1.5 0 0 1 3 0v4"></path>
  </symbol>

  
  <symbol id="i-taxi" viewBox="0 0 24 24" fill="none" stroke="currentColor" stroke-width="1.75" stroke-linecap="round" stroke-linejoin="round">
    <path d="M4 15.5V12l2-4.5A2 2 0 0 1 7.8 6.3h8.4a2 2 0 0 1 1.8 1.2L20 12v3.5"></path>
    <path d="M3 15.5h18v2.5a1 1 0 0 1-1 1h-1a1 1 0 0 1-1-1v-1H6v1a1 1 0 0 1-1 1H4a1 1 0 0 1-1-1z"></path>
    <circle cx="7.5" cy="13" r="0.9" fill="currentColor" stroke="none"></circle>
    <circle cx="16.5" cy="13" r="0.9" fill="currentColor" stroke="none"></circle>
    <path d="M9 4.5h6v1.8H9z"></path>
  </symbol>

  <symbol id="i-speech" viewBox="0 0 24 24" fill="none" stroke="currentColor" stroke-width="1.75" stroke-linecap="round" stroke-linejoin="round">
    <path d="M4 5.5h16a1 1 0 0 1 1 1v9a1 1 0 0 1-1 1H9l-4 3.5v-3.5H4a1 1 0 0 1-1-1v-9a1 1 0 0 1 1-1z"></path>
    <path d="M8 10h8M8 13h5"></path>
  </symbol>

  <symbol id="i-sos" viewBox="0 0 24 24" fill="none" stroke="currentColor" stroke-width="1.75" stroke-linecap="round" stroke-linejoin="round">
    <circle cx="12" cy="12" r="8.5"></circle>
    <path d="M12 8v4.5M12 15.8v.2"></path>
  </symbol>

  <symbol id="i-warn" viewBox="0 0 24 24" fill="none" stroke="currentColor" stroke-width="1.75" stroke-linecap="round" stroke-linejoin="round">
    <path d="M12 3.5 2.5 20h19z"></path>
    <path d="M12 10v4.5M12 17.2v.2"></path>
  </symbol>

  <symbol id="i-speaker" viewBox="0 0 24 24" fill="none" stroke="currentColor" stroke-width="1.75" stroke-linecap="round" stroke-linejoin="round">
    <path d="M4 9.5h3.5L12 6v12l-4.5-3.5H4z"></path>
    <path d="M15.5 9c1.2 1 1.2 5 0 6M17.8 6.5c2.5 2 2.5 9 0 11"></path>
  </symbol>

  <symbol id="i-copy" viewBox="0 0 24 24" fill="none" stroke="currentColor" stroke-width="1.75" stroke-linecap="round" stroke-linejoin="round">
    <rect x="8" y="8" width="12" height="12" rx="2"></rect>
    <path d="M16 8V5a1 1 0 0 0-1-1H5a1 1 0 0 0-1 1v10a1 1 0 0 0 1 1h3"></path>
  </symbol>

  <symbol id="i-check" viewBox="0 0 24 24" fill="none" stroke="currentColor" stroke-width="2" stroke-linecap="round" stroke-linejoin="round">
    <path d="m4.5 12.5 4.5 4.5L20 6"></path>
  </symbol>

  <symbol id="i-plus" viewBox="0 0 24 24" fill="none" stroke="currentColor" stroke-width="2" stroke-linecap="round" stroke-linejoin="round">
    <path d="M12 5v14M5 12h14"></path>
  </symbol>

  <symbol id="i-heart" viewBox="0 0 24 24" fill="none" stroke="currentColor" stroke-width="1.75" stroke-linecap="round" stroke-linejoin="round">
    <path d="M12 20s-8-4.5-8-10.5A4.5 4.5 0 0 1 12 6a4.5 4.5 0 0 1 8 3.5c0 6-8 10.5-8 10.5z"></path>
  </symbol>

  <symbol id="i-clock" viewBox="0 0 24 24" fill="none" stroke="currentColor" stroke-width="1.75" stroke-linecap="round" stroke-linejoin="round">
    <circle cx="12" cy="12" r="8.5"></circle>
    <path d="M12 7.5V12l3 2"></path>
  </symbol>

  <symbol id="i-hourglass" viewBox="0 0 24 24" fill="none" stroke="currentColor" stroke-width="1.75" stroke-linecap="round" stroke-linejoin="round">
    <path d="M6 3.5h12M6 20.5h12"></path>
    <path d="M7 3.5c0 4.5 5 6.5 5 8.5s-5 4-5 8.5M17 3.5c0 4.5-5 6.5-5 8.5s5 4 5 8.5"></path>
  </symbol>

  <symbol id="i-yuan" viewBox="0 0 24 24" fill="none" stroke="currentColor" stroke-width="1.75" stroke-linecap="round" stroke-linejoin="round">
    <path d="M7 5 12 12 17 5"></path>
    <path d="M6 11h12M6 14.5h12M12 12v8"></path>
  </symbol>

  <symbol id="i-badge-unesco" viewBox="0 0 24 24" fill="none" stroke="currentColor" stroke-width="1.75" stroke-linecap="round" stroke-linejoin="round">
    <path d="m12 3 2.5 2L18 4l.5 3.5L21 9.5l-2 3 2 3-2.5 2L18 21l-3.5-1L12 22l-2.5-2L6 21l-.5-3.5L3 15.5l2-3-2-3 2.5-2L6 4l3.5 1z"></path>
    <path d="m9 12 2 2 4-4"></path>
  </symbol>

  <symbol id="i-senior" viewBox="0 0 24 24" fill="none" stroke="currentColor" stroke-width="1.75" stroke-linecap="round" stroke-linejoin="round">
    <circle cx="10.5" cy="6" r="2.5"></circle>
    <path d="M7.5 20.5v-6M13.5 20.5v-6"></path>
    <path d="M10.5 8.5c-2 0-3.5 1.5-3.5 4v2M10.5 8.5c2 0 3.5 1.5 3.5 4v2"></path>
    <path d="M16.5 8v13M16.5 20.5h3"></path>
  </symbol>

  <symbol id="i-free" viewBox="0 0 24 24" fill="none" stroke="currentColor" stroke-width="1.75" stroke-linecap="round" stroke-linejoin="round">
    <path d="M20.5 12 12 20.5l-8.5-8.5L12 3.5h5.5a3 3 0 0 1 3 3z"></path>
    <circle cx="16.5" cy="7.5" r="1.2"></circle>
  </symbol>

  <symbol id="i-lantern" viewBox="0 0 24 24" fill="none" stroke="currentColor" stroke-width="1.75" stroke-linecap="round" stroke-linejoin="round">
    <path d="M12 3.5v2M12 18.5v2.5M8 5.5h8"></path>
    <path d="M8 5.5c-1.5 1.5-1.5 11 0 13h8c1.5-2 1.5-11.5 0-13"></path>
    <path d="M7 9h10M7 15h10"></path>
    <path d="M12 21v.5"></path>
  </symbol>

</svg>